1.9Hzhigh3min_grf.mot
version=1
nRows=22
nColumns 19
inDegrees=yes
endheader
time	1_ground_force_vx	1_ground_force_vy	1_ground_force_vz	1_ground_force_px	1_ground_force_py	1_ground_force_pz	1_ground_torque_x	1_ground_torque_y	1_ground_torque_z	2_ground_force_vx	2_ground_force_vy	2_ground_force_vz	2_ground_force_px	2_ground_force_py	2_ground_force_pz	2_ground_torque_x	2_ground_torque_y	2_ground_torque_z
            0.005000	          -89.454988	         1437.021757	         -152.694807	           -0.283489	            0.006158	           -0.392299	           -0.244393	            3.925981	           -0.417166	         -115.442313	         1314.140078	          134.589216	           -0.268175	            0.005578	           -0.715323	            0.141877	           -1.615060	           -0.165408
            0.005500	          -89.776183	         1434.859809	         -152.978429	           -0.283409	            0.006158	           -0.392258	           -0.251278	            4.016079	           -0.428177	         -115.158297	         1313.402522	          135.149605	           -0.268282	            0.005579	           -0.715456	            0.123132	           -1.404339	           -0.144507
            0.006000	          -90.233587	         1432.334835	         -152.758837	           -0.283358	            0.006158	           -0.392282	           -0.248835	            3.949911	           -0.421259	         -114.266013	         1312.852081	          135.475775	           -0.268304	            0.005579	           -0.715571	            0.113207	           -1.300689	           -0.134221
            0.006500	          -90.279143	         1430.171956	         -152.813836	           -0.283322	            0.006158	           -0.392317	           -0.244437	            3.872283	           -0.413753	         -113.703013	         1312.668860	          135.803368	           -0.268209	            0.005579	           -0.715613	            0.112201	           -1.295326	           -0.134009
            0.007000	          -90.920189	         1428.548502	         -152.635792	           -0.283203	            0.006158	           -0.392316	           -0.233759	            3.672842	           -0.392431	         -113.135949	         1311.380170	          136.267796	           -0.268300	            0.005579	           -0.715539	            0.113559	           -1.316284	           -0.136777
            0.007500	          -91.194312	         1427.105144	         -152.366150	           -0.283122	            0.006158	           -0.392261	           -0.230321	            3.604305	           -0.384817	         -112.524261	         1310.645974	          136.218003	           -0.268272	            0.005579	           -0.715595	            0.103013	           -1.199863	           -0.124704
            0.008000	          -91.926917	         1424.760976	         -152.190968	           -0.283033	            0.006158	           -0.392256	           -0.228161	            3.536236	           -0.377736	         -111.308545	         1311.384592	          136.877091	           -0.268257	            0.005580	           -0.715741	            0.111586	           -1.314653	           -0.137218
            0.008500	          -91.971320	         1423.136457	         -151.739230	           -0.283039	            0.006158	           -0.392235	           -0.239385	            3.704168	           -0.394950	         -109.989368	         1309.363218	          137.010083	           -0.268274	            0.005579	           -0.715621	            0.104727	           -1.246714	           -0.130455
            0.009000	          -92.383751	         1421.694449	         -151.790257	           -0.282953	            0.006158	           -0.392219	           -0.242395	            3.730217	           -0.398265	         -109.142476	         1308.443444	          137.616512	           -0.268337	            0.005579	           -0.715732	            0.093730	           -1.123679	           -0.118184
            0.009500	          -92.475600	         1420.072918	         -151.980425	           -0.282882	            0.006157	           -0.392076	           -0.240404	            3.691691	           -0.395096	         -108.533179	         1308.443635	          138.179390	           -0.268301	            0.005580	           -0.715782	            0.085199	           -1.027132	           -0.108471
            0.010000	          -92.382557	         1418.268449	         -151.575667	           -0.282848	            0.006157	           -0.392086	           -0.231112	            3.548058	           -0.379194	         -107.685801	         1307.340876	          138.409737	           -0.268357	            0.005579	           -0.715723	            0.088152	           -1.070197	           -0.113303
            0.010500	          -92.244473	         1416.465364	         -151.492034	           -0.282730	            0.006157	           -0.392054	           -0.223741	            3.435675	           -0.367448	         -107.071975	         1306.053025	          138.686432	           -0.268518	            0.005579	           -0.715762	            0.091904	           -1.121030	           -0.119039
            0.011000	          -92.701811	         1413.580042	         -151.273988	           -0.282768	            0.006157	           -0.392114	           -0.222299	            3.389759	           -0.362754	         -106.086878	         1305.688844	          138.496987	           -0.268402	            0.005579	           -0.715775	            0.087287	           -1.074300	           -0.113953
            0.011500	          -92.562685	         1411.054444	         -150.826569	           -0.282732	            0.006158	           -0.392186	           -0.223122	            3.401341	           -0.363567	         -105.008619	         1305.508320	          138.589743	           -0.268448	            0.005579	           -0.715801	            0.088482	           -1.100041	           -0.116778
            0.012000	          -92.791378	         1409.431707	         -150.741252	           -0.282576	            0.006157	           -0.392053	           -0.228679	            3.473466	           -0.371493	         -104.022734	         1304.959055	          138.681194	           -0.268512	            0.005579	           -0.715813	            0.082903	           -1.040015	           -0.110525
            0.012500	          -92.331456	         1405.644810	         -150.437642	           -0.282535	            0.006158	           -0.392158	           -0.227760	            3.467394	           -0.371094	         -103.081695	         1303.857214	          138.817661	           -0.268535	            0.005579	           -0.715834	            0.075326	           -0.952775	           -0.101439
            0.013000	          -92.376979	         1403.301513	         -150.493414	           -0.282534	            0.006158	           -0.392222	           -0.219680	            3.337160	           -0.357885	         -102.143155	         1303.490520	          139.285214	           -0.268548	            0.005579	           -0.715976	            0.071067	           -0.906912	           -0.096909
            0.013500	          -92.101923	         1402.040008	         -150.591242	           -0.282391	            0.006157	           -0.392116	           -0.211452	            3.218876	           -0.345735	         -101.251577	         1303.124737	          139.518170	           -0.268657	            0.005579	           -0.716071	            0.073037	           -0.940004	           -0.100641
            0.014000	          -91.595418	         1399.152906	         -149.917003	           -0.282376	            0.006158	           -0.392145	           -0.205454	            3.138387	           -0.336273	         -100.591715	         1302.022307	          139.467012	           -0.268690	            0.005579	           -0.715988	            0.070867	           -0.917274	           -0.098254
            0.014500	          -91.319025	         1396.807902	         -149.560887	           -0.282353	            0.006158	           -0.392164	           -0.207931	            3.180488	           -0.340545	          -99.646831	         1299.816427	          139.271016	           -0.268688	            0.005579	           -0.715986	            0.076039	           -0.991866	           -0.106275
            0.015000	          -90.675694	         1394.642994	         -149.113204	           -0.282242	            0.006157	           -0.392070	           -0.211689	            3.255892	           -0.348115	          -98.712464	         1300.556450	          139.320183	           -0.268513	            0.005580	           -0.716144	            0.070210	           -0.925033	           -0.099093
            0.015500	          -90.535854	         1392.656786	         -148.342486	           -0.282148	            0.006157	           -0.392025	           -0.209742	            3.226327	           -0.343661	          -97.394193	         1298.720996	          138.937629	           -0.268752	            0.005580	           -0.716237	            0.070209	           -0.936217	           -0.100157
